<svg width="54" height="28" viewBox="0 0 54 28" fill="none" xmlns="http://www.w3.org/2000/svg">
<path d="M8.95312 6.43466H6.84801C6.85938 6.21307 6.83807 6.01562 6.78409 5.84233C6.73011 5.66619 6.64489 5.51562 6.52841 5.39062C6.41193 5.26278 6.26705 5.16619 6.09375 5.10085C5.92045 5.03551 5.71875 5.00284 5.48864 5.00284C5.0483 5.00284 4.64915 5.11222 4.29119 5.33097C3.93324 5.54972 3.63352 5.86506 3.39205 6.27699C3.15057 6.68892 2.98153 7.18324 2.88494 7.75994C2.79688 8.31676 2.7983 8.78125 2.8892 9.15341C2.98295 9.52557 3.15625 9.8054 3.40909 9.9929C3.66193 10.1776 3.98295 10.2699 4.37216 10.2699C4.625 10.2699 4.85938 10.2401 5.07528 10.1804C5.29403 10.1179 5.49148 10.0284 5.66761 9.91193C5.84375 9.79545 5.99574 9.65483 6.12358 9.49006C6.25426 9.32244 6.35511 9.13636 6.42614 8.93182H8.5483C8.44318 9.31534 8.26989 9.69744 8.02841 10.0781C7.78977 10.456 7.48864 10.7983 7.125 11.1051C6.76136 11.4119 6.33949 11.6577 5.85938 11.8423C5.37926 12.027 4.84517 12.1193 4.2571 12.1193C3.45313 12.1193 2.75994 11.9389 2.17756 11.5781C1.59801 11.2173 1.17898 10.6946 0.920455 10.0099C0.664773 9.32244 0.616477 8.49006 0.775568 7.51278C0.931818 6.56676 1.24006 5.76989 1.70028 5.12216C2.16335 4.47443 2.72585 3.98438 3.38778 3.65199C4.05256 3.3196 4.76136 3.15341 5.5142 3.15341C6.05966 3.15341 6.54972 3.22727 6.98438 3.375C7.42188 3.51989 7.79261 3.73295 8.09659 4.0142C8.40057 4.29261 8.62642 4.63494 8.77415 5.04119C8.92472 5.44744 8.98438 5.91193 8.95312 6.43466ZM18.1843 7.77273C18.0252 8.71307 17.7127 9.5071 17.2468 10.1548C16.7837 10.7997 16.2198 11.2884 15.555 11.6207C14.8931 11.9531 14.1815 12.1193 13.4201 12.1193C12.6161 12.1193 11.9201 11.9403 11.332 11.5824C10.744 11.2244 10.3164 10.7031 10.0494 10.0185C9.78516 9.33381 9.73402 8.50284 9.89595 7.52557C10.0494 6.58523 10.3576 5.78977 10.8207 5.1392C11.2866 4.48864 11.8533 3.99574 12.521 3.66051C13.1914 3.32244 13.9102 3.15341 14.6772 3.15341C15.4755 3.15341 16.1673 3.33381 16.7525 3.6946C17.3406 4.0554 17.7667 4.57955 18.0309 5.26705C18.2951 5.95455 18.3462 6.78977 18.1843 7.77273ZM16.0749 7.52557C16.163 6.97727 16.163 6.51562 16.0749 6.14062C15.9897 5.76562 15.8221 5.48295 15.5721 5.29261C15.3221 5.09943 14.9968 5.00284 14.5962 5.00284C14.1531 5.00284 13.7525 5.11222 13.3945 5.33097C13.0394 5.54687 12.7425 5.86222 12.5039 6.27699C12.2653 6.68892 12.0991 7.1875 12.0053 7.77273C11.9087 8.3267 11.9059 8.78835 11.9968 9.15767C12.0906 9.52699 12.2653 9.8054 12.521 9.9929C12.7766 10.1776 13.1019 10.2699 13.4968 10.2699C13.9371 10.2699 14.3335 10.1634 14.6857 9.95028C15.038 9.73722 15.332 9.42614 15.5678 9.01705C15.8065 8.60795 15.9755 8.1108 16.0749 7.52557ZM20.1616 3.27273H22.7738L24.0948 8.67614H24.1971L27.3079 3.27273H29.9201L28.4712 12H26.4173L27.3079 6.6392H27.2354L24.261 11.9446H22.9528L21.7425 6.60938H21.6701L20.7667 12H18.7127L20.1616 3.27273ZM29.7869 12L31.2358 3.27273H34.8409C35.4943 3.27273 36.0384 3.39915 36.473 3.65199C36.9077 3.90483 37.2159 4.25852 37.3977 4.71307C37.5795 5.16761 37.6207 5.6946 37.5213 6.29403C37.4247 6.89915 37.2074 7.42614 36.8693 7.875C36.5341 8.32386 36.1023 8.67187 35.5739 8.91903C35.0455 9.16619 34.4446 9.28977 33.7713 9.28977H31.5511L31.8281 7.62784H33.6605C33.9815 7.62784 34.2585 7.57244 34.4915 7.46165C34.7273 7.35085 34.9162 7.19602 35.0582 6.99716C35.2003 6.7983 35.294 6.56392 35.3395 6.29403C35.3821 6.02415 35.3651 5.79119 35.2884 5.59517C35.2116 5.39631 35.0739 5.2429 34.875 5.13494C34.679 5.02699 34.4233 4.97301 34.108 4.97301H33.0682L31.8963 12H29.7869ZM44.332 3.27273H46.4371L45.5039 8.90199C45.396 9.55256 45.1474 10.1193 44.7582 10.6023C44.3718 11.0824 43.8789 11.4545 43.2795 11.7188C42.68 11.9801 42.0124 12.1108 41.2766 12.1108C40.538 12.1108 39.9144 11.9801 39.4059 11.7188C38.8974 11.4545 38.5295 11.0824 38.3022 10.6023C38.0749 10.1193 38.0138 9.55256 38.119 8.90199L39.0522 3.27273H41.1616L40.2539 8.71875C40.2056 9.01989 40.2283 9.28835 40.3221 9.52415C40.4187 9.7571 40.5749 9.94176 40.7908 10.0781C41.0067 10.2116 41.271 10.2784 41.5835 10.2784C41.8988 10.2784 42.1871 10.2116 42.4485 10.0781C42.7099 9.94176 42.9258 9.7571 43.0962 9.52415C43.2667 9.28835 43.3761 9.01989 43.4244 8.71875L44.332 3.27273Z" fill="white"/>
<rect x="17" y="14" width="19" height="13" fill="#DD0B0B"/>
<path d="M45.9227 22.0659C45.8829 22.0659 45.8436 22.0566 45.8071 22.0385C45.7707 22.0205 45.7379 21.994 45.7109 21.9609L39.9997 14.9594C39.9617 14.9127 39.9364 14.8544 39.9271 14.7918C39.9178 14.7291 39.9248 14.6647 39.9473 14.6064C39.9697 14.5482 40.0067 14.4986 40.0537 14.4638C40.1006 14.4291 40.1555 14.4105 40.2116 14.4105H42.9606C43.0019 14.4105 43.0427 14.4206 43.0802 14.44C43.1178 14.4594 43.1512 14.4877 43.1783 14.5229L45.087 17.0116C45.2933 16.5119 45.6926 15.6798 46.3933 14.6659C47.4293 13.1669 49.3561 10.9625 52.6528 8.97242C52.7165 8.93396 52.7906 8.92398 52.8605 8.94444C52.9304 8.96491 52.991 9.01433 53.0303 9.08295C53.0696 9.15157 53.0848 9.23441 53.0728 9.31509C53.0609 9.39578 53.0227 9.46846 52.9658 9.51877C52.9532 9.52992 51.6821 10.6643 50.2193 12.7422C48.873 14.6544 47.0833 17.7811 46.2026 21.8176C46.1872 21.8885 46.1512 21.9515 46.1004 21.9966C46.0497 22.0416 45.9871 22.0661 45.9226 22.0661L45.9227 22.0659Z" fill="#DD0B0B"/>
<path d="M19.1293 16.2727H21.4858L22.7216 19.9247H22.8111L25.2528 16.2727H27.6094L23.4545 22.0852L22.9688 25H20.8722L21.3622 22.0852L19.1293 16.2727ZM28.0419 25H25.7749L30.1683 16.2727H32.9766L34.4723 25H32.2053L31.2464 18.4716H31.1783L28.0419 25ZM28.3146 21.5653H33.0533L32.7805 23.1676H28.0419L28.3146 21.5653Z" fill="white"/>
</svg>
